<svg width="1026" height="128" viewBox="0 0 1026 128" fill="none" xmlns="http://www.w3.org/2000/svg">
<g clip-path="url(#clip0)">
<path d="M23.6875 111H6.5V17.4375H23.6875V111Z" fill="#54669C"/>
<path d="M56.875 25.875C56.875 27.4583 56.5625 28.9375 55.9375 30.3125C55.3542 31.6875 54.5417 32.8958 53.5 33.9375C52.4583 34.9375 51.2292 35.75 49.8125 36.375C48.4375 36.9583 46.9583 37.25 45.375 37.25C43.7917 37.25 42.2917 36.9583 40.875 36.375C39.5 35.75 38.2917 34.9375 37.25 33.9375C36.25 32.8958 35.4375 31.6875 34.8125 30.3125C34.2292 28.9375 33.9375 27.4583 33.9375 25.875C33.9375 24.3333 34.2292 22.875 34.8125 21.5C35.4375 20.0833 36.25 18.875 37.25 17.875C38.2917 16.8333 39.5 16.0208 40.875 15.4375C42.2917 14.8125 43.7917 14.5 45.375 14.5C46.9583 14.5 48.4375 14.8125 49.8125 15.4375C51.2292 16.0208 52.4583 16.8333 53.5 17.875C54.5417 18.875 55.3542 20.0833 55.9375 21.5C56.5625 22.875 56.875 24.3333 56.875 25.875ZM53.9375 111H36.75V44.0625H53.9375V111Z" fill="#A54A5E"/>
<path d="M84.0625 111H67V17.4375H84.0625V47C86.1042 45.4583 88.2083 44.375 90.375 43.75C92.5417 43.0833 94.75 42.75 97 42.75C101.125 42.75 105 43.5417 108.625 45.125C112.25 46.6667 115.396 48.8125 118.062 51.5625C120.771 54.2708 122.896 57.4583 124.438 61.125C126.021 64.75 126.812 68.625 126.812 72.75V111H109.625V72.75H109.75C109.75 71 109.417 69.3542 108.75 67.8125C108.083 66.2292 107.167 64.8542 106 63.6875C104.833 62.5208 103.479 61.6042 101.938 60.9375C100.396 60.2708 98.75 59.9375 97 59.9375C95.2083 59.9375 93.5208 60.2708 91.9375 60.9375C90.3542 61.6042 88.9792 62.5208 87.8125 63.6875C86.6458 64.8542 85.7292 66.2292 85.0625 67.8125C84.3958 69.3542 84.0625 71 84.0625 72.75V111Z" fill="#E84311"/>
<path d="M206 76.9375C206 82.1875 205.104 86.9792 203.312 91.3125C201.521 95.6458 199.083 99.375 196 102.5C192.917 105.583 189.292 107.979 185.125 109.688C181 111.396 176.562 112.25 171.812 112.25C167.104 112.25 162.667 111.375 158.5 109.625C154.375 107.875 150.75 105.438 147.625 102.312C144.542 99.1875 142.104 95.4792 140.312 91.1875C138.521 86.8542 137.625 82.1042 137.625 76.9375V17.4375H154.75V48.6875C155.667 47.5208 156.771 46.4792 158.062 45.5625C159.396 44.6458 160.812 43.8958 162.312 43.3125C163.854 42.7292 165.438 42.2917 167.062 42C168.688 41.6667 170.271 41.5 171.812 41.5C176.562 41.5 181 42.3958 185.125 44.1875C189.292 45.9375 192.917 48.3958 196 51.5625C199.083 54.7292 201.521 58.4792 203.312 62.8125C205.104 67.1042 206 71.8125 206 76.9375ZM188.812 76.9375C188.812 74.3542 188.354 71.9583 187.438 69.75C186.562 67.5 185.354 65.5625 183.812 63.9375C182.271 62.3125 180.458 61.0417 178.375 60.125C176.333 59.2083 174.146 58.75 171.812 58.75C169.479 58.75 167.271 59.2708 165.188 60.3125C163.146 61.3125 161.354 62.6667 159.812 64.375C158.271 66.0417 157.062 67.9792 156.188 70.1875C155.312 72.3542 154.875 74.6042 154.875 76.9375C154.875 79.5208 155.312 81.9167 156.188 84.125C157.062 86.3333 158.271 88.25 159.812 89.875C161.354 91.5 163.146 92.7917 165.188 93.75C167.271 94.6667 169.479 95.125 171.812 95.125C174.146 95.125 176.333 94.6667 178.375 93.75C180.458 92.7917 182.271 91.5 183.812 89.875C185.354 88.25 186.562 86.3333 187.438 84.125C188.354 81.9167 188.812 79.5208 188.812 76.9375Z" fill="#F27502"/>
<path d="M232.562 111H215.5V44.0625H219.625L225.25 52C228 49.5 231.125 47.5833 234.625 46.25C238.125 44.875 241.75 44.1875 245.5 44.1875H260.562V61.1875H245.5C243.708 61.1875 242.021 61.5208 240.438 62.1875C238.854 62.8542 237.479 63.7708 236.312 64.9375C235.146 66.1042 234.229 67.4792 233.562 69.0625C232.896 70.6458 232.562 72.3333 232.562 74.125V111Z" fill="#759F53"/>
<path d="M284 111H265.562L302.688 21.375H321.125L284 111ZM379.188 103.188C377.812 104.438 376.333 105.625 374.75 106.75C373.208 107.833 371.583 108.792 369.875 109.625C368.167 110.417 366.396 111.042 364.562 111.5C362.771 112 360.938 112.25 359.062 112.25C354.938 112.25 351.062 111.521 347.438 110.062C343.812 108.604 340.625 106.542 337.875 103.875C335.167 101.167 333.021 97.8958 331.438 94.0625C329.896 90.1875 329.125 85.8542 329.125 81.0625V44.0625H346.125V81.0625C346.125 83.3125 346.458 85.3333 347.125 87.125C347.833 88.875 348.771 90.3542 349.938 91.5625C351.104 92.7708 352.458 93.6875 354 94.3125C355.583 94.9375 357.271 95.25 359.062 95.25C360.812 95.25 362.458 94.8542 364 94.0625C365.583 93.2292 366.958 92.1458 368.125 90.8125C369.292 89.4792 370.208 87.9792 370.875 86.3125C371.542 84.6042 371.875 82.8542 371.875 81.0625V44.0625H388.938V111H384.812L379.188 103.188ZM435.562 111C431.438 111 427.562 110.229 423.938 108.688C420.312 107.104 417.125 104.958 414.375 102.25C411.667 99.5 409.521 96.3125 407.938 92.6875C406.396 89.0625 405.625 85.1875 405.625 81.0625V61.1875H397.312V44.1875H405.625V17.4375H422.625V44.1875H448.5V61.1875H422.625V81.0625C422.625 82.8542 422.958 84.5417 423.625 86.125C424.292 87.6667 425.208 89.0208 426.375 90.1875C427.542 91.3542 428.917 92.2917 430.5 93C432.083 93.6667 433.771 94 435.562 94H448.5V111H435.562ZM478.25 25.875C478.25 27.4583 477.938 28.9375 477.312 30.3125C476.729 31.6875 475.917 32.8958 474.875 33.9375C473.833 34.9375 472.604 35.75 471.188 36.375C469.812 36.9583 468.333 37.25 466.75 37.25C465.167 37.25 463.667 36.9583 462.25 36.375C460.875 35.75 459.667 34.9375 458.625 33.9375C457.625 32.8958 456.812 31.6875 456.188 30.3125C455.604 28.9375 455.312 27.4583 455.312 25.875C455.312 24.3333 455.604 22.875 456.188 21.5C456.812 20.0833 457.625 18.875 458.625 17.875C459.667 16.8333 460.875 16.0208 462.25 15.4375C463.667 14.8125 465.167 14.5 466.75 14.5C468.333 14.5 469.812 14.8125 471.188 15.4375C472.604 16.0208 473.833 16.8333 474.875 17.875C475.917 18.875 476.729 20.0833 477.312 21.5C477.938 22.875 478.25 24.3333 478.25 25.875ZM475.312 111H458.125V44.0625H475.312V111ZM505.562 111H488.375V17.4375H505.562V111ZM555.375 111H516.375V94H555.375C556.542 94 557.542 93.5833 558.375 92.75C559.208 91.9167 559.625 90.9167 559.625 89.75C559.625 88.5417 559.208 87.75 558.375 87.375C557.542 87 556.542 86.8125 555.375 86.8125H537.625C534.667 86.8125 531.896 86.25 529.312 85.125C526.729 84 524.479 82.4792 522.562 80.5625C520.646 78.6042 519.125 76.3333 518 73.75C516.917 71.1667 516.375 68.3958 516.375 65.4375C516.375 62.4792 516.917 59.7083 518 57.125C519.125 54.5417 520.646 52.2917 522.562 50.375C524.479 48.4583 526.729 46.9583 529.312 45.875C531.896 44.75 534.667 44.1875 537.625 44.1875H572.188V61.1875H537.625C536.458 61.1875 535.458 61.6042 534.625 62.4375C533.792 63.2708 533.375 64.2708 533.375 65.4375C533.375 66.6458 533.792 67.6875 534.625 68.5625C535.458 69.3958 536.458 69.8125 537.625 69.8125H555.375C558.292 69.8125 561.042 70.3125 563.625 71.3125C566.208 72.2708 568.458 73.625 570.375 75.375C572.292 77.125 573.812 79.2292 574.938 81.6875C576.062 84.1458 576.625 86.8333 576.625 89.75C576.625 92.7083 576.062 95.4792 574.938 98.0625C573.812 100.604 572.292 102.854 570.375 104.812C568.458 106.729 566.208 108.25 563.625 109.375C561.042 110.458 558.292 111 555.375 111ZM639.312 57.25V74.25H586.812V57.25H639.312ZM670.562 111H653.5V44.0625H657.625L663.25 50.5625C666 48.0625 669.104 46.1458 672.562 44.8125C676.062 43.4375 679.708 42.75 683.5 42.75C687.583 42.75 691.438 43.5417 695.062 45.125C698.688 46.6667 701.854 48.8125 704.562 51.5625C707.271 54.2708 709.396 57.4583 710.938 61.125C712.521 64.75 713.312 68.625 713.312 72.75V111H696.25V72.75C696.25 71 695.917 69.3542 695.25 67.8125C694.583 66.2292 693.667 64.8542 692.5 63.6875C691.333 62.5208 689.979 61.6042 688.438 60.9375C686.896 60.2708 685.25 59.9375 683.5 59.9375C681.708 59.9375 680.021 60.2708 678.438 60.9375C676.854 61.6042 675.479 62.5208 674.312 63.6875C673.146 64.8542 672.229 66.2292 671.562 67.8125C670.896 69.3542 670.562 71 670.562 72.75V111ZM752.125 94.625C752.792 94.8333 753.458 94.9792 754.125 95.0625C754.792 95.1042 755.458 95.125 756.125 95.125C757.792 95.125 759.396 94.8958 760.938 94.4375C762.479 93.9792 763.917 93.3333 765.25 92.5C766.625 91.625 767.833 90.5833 768.875 89.375C769.958 88.125 770.833 86.75 771.5 85.25L784 97.8125C782.417 100.062 780.583 102.083 778.5 103.875C776.458 105.667 774.229 107.188 771.812 108.438C769.438 109.688 766.917 110.625 764.25 111.25C761.625 111.917 758.917 112.25 756.125 112.25C751.417 112.25 746.979 111.375 742.812 109.625C738.688 107.875 735.062 105.438 731.938 102.312C728.854 99.1875 726.417 95.4792 724.625 91.1875C722.833 86.8542 721.938 82.1042 721.938 76.9375C721.938 71.6458 722.833 66.8125 724.625 62.4375C726.417 58.0625 728.854 54.3333 731.938 51.25C735.062 48.1667 738.688 45.7708 742.812 44.0625C746.979 42.3542 751.417 41.5 756.125 41.5C758.917 41.5 761.646 41.8333 764.312 42.5C766.979 43.1667 769.5 44.125 771.875 45.375C774.292 46.625 776.542 48.1667 778.625 50C780.708 51.7917 782.542 53.8125 784.125 56.0625L752.125 94.625ZM760.875 59.4375C760.083 59.1458 759.292 58.9583 758.5 58.875C757.75 58.7917 756.958 58.75 756.125 58.75C753.792 58.75 751.583 59.1875 749.5 60.0625C747.458 60.8958 745.667 62.1042 744.125 63.6875C742.625 65.2708 741.438 67.1875 740.562 69.4375C739.688 71.6458 739.25 74.1458 739.25 76.9375C739.25 77.5625 739.271 78.2708 739.312 79.0625C739.396 79.8542 739.5 80.6667 739.625 81.5C739.792 82.2917 739.979 83.0625 740.188 83.8125C740.396 84.5625 740.667 85.2292 741 85.8125L760.875 59.4375ZM826.312 111C822.188 111 818.312 110.229 814.688 108.688C811.062 107.104 807.875 104.958 805.125 102.25C802.417 99.5 800.271 96.3125 798.688 92.6875C797.146 89.0625 796.375 85.1875 796.375 81.0625V61.1875H788.062V44.1875H796.375V17.4375H813.375V44.1875H839.25V61.1875H813.375V81.0625C813.375 82.8542 813.708 84.5417 814.375 86.125C815.042 87.6667 815.958 89.0208 817.125 90.1875C818.292 91.3542 819.667 92.2917 821.25 93C822.833 93.6667 824.521 94 826.312 94H839.25V111H826.312ZM866.062 111H848.875V17.4375H866.062V111ZM899.25 25.875C899.25 27.4583 898.938 28.9375 898.312 30.3125C897.729 31.6875 896.917 32.8958 895.875 33.9375C894.833 34.9375 893.604 35.75 892.188 36.375C890.812 36.9583 889.333 37.25 887.75 37.25C886.167 37.25 884.667 36.9583 883.25 36.375C881.875 35.75 880.667 34.9375 879.625 33.9375C878.625 32.8958 877.812 31.6875 877.188 30.3125C876.604 28.9375 876.312 27.4583 876.312 25.875C876.312 24.3333 876.604 22.875 877.188 21.5C877.812 20.0833 878.625 18.875 879.625 17.875C880.667 16.8333 881.875 16.0208 883.25 15.4375C884.667 14.8125 886.167 14.5 887.75 14.5C889.333 14.5 890.812 14.8125 892.188 15.4375C893.604 16.0208 894.833 16.8333 895.875 17.875C896.917 18.875 897.729 20.0833 898.312 21.5C898.938 22.875 899.25 24.3333 899.25 25.875ZM896.312 111H879.125V44.0625H896.312V111ZM931.062 111H914V61.0625H905.688V44.0625H914V40.875C914 36.75 914.771 32.875 916.312 29.25C917.896 25.625 920.042 22.4792 922.75 19.8125C925.5 17.1042 928.688 14.9792 932.312 13.4375C935.938 11.8542 939.812 11.0625 943.938 11.0625H956.75V28.0625H943.938C942.104 28.0625 940.396 28.3958 938.812 29.0625C937.271 29.6875 935.917 30.5833 934.75 31.75C933.625 32.875 932.729 34.2292 932.062 35.8125C931.396 37.3542 931.062 39.0417 931.062 40.875V44.0625H952V61.0625H931.062V111ZM975.75 136.5V119.312L985.25 119.438C986.917 119.438 988.521 119.167 990.062 118.625C991.604 118.083 993.021 117.333 994.312 116.375C995.646 115.417 996.812 114.271 997.812 112.938C998.812 111.646 999.625 110.229 1000.25 108.688C998.375 109.479 996.458 110.271 994.5 111.062C992.583 111.854 990.646 112.25 988.688 112.25C984.562 112.25 980.688 111.521 977.062 110.062C973.438 108.604 970.25 106.542 967.5 103.875C964.792 101.167 962.646 97.8958 961.062 94.0625C959.521 90.1875 958.75 85.8542 958.75 81.0625V44.0625H975.75V81.0625C975.75 83.4375 976.083 85.5208 976.75 87.3125C977.458 89.0625 978.396 90.5417 979.562 91.75C980.729 92.9167 982.083 93.7917 983.625 94.375C985.208 94.9583 986.896 95.25 988.688 95.25C990.438 95.25 992.083 94.8542 993.625 94.0625C995.208 93.2292 996.583 92.1458 997.75 90.8125C998.917 89.4792 999.833 87.9792 1000.5 86.3125C1001.17 84.6042 1001.5 82.8542 1001.5 81.0625V44.0625H1018.69V102.562C1018.65 107.271 1017.73 111.688 1015.94 115.812C1014.15 119.938 1011.69 123.542 1008.56 126.625C1005.48 129.708 1001.88 132.146 997.75 133.938C993.625 135.729 989.208 136.625 984.5 136.625L975.75 136.5Z" fill="#1E1919"/>
</g>
<defs>
<clipPath id="clip0">
<rect width="1026" height="128" fill="white"/>
</clipPath>
</defs>
</svg>
